<?xml version="1.0" standalone="no"?>
<!DOCTYPE svg PUBLIC "-//W3C//DTD SVG 20010904//EN"
 "http://www.w3.org/TR/2001/REC-SVG-20010904/DTD/svg10.dtd">
<svg version="1.0" xmlns="http://www.w3.org/2000/svg"
 width="32" height="32" viewBox="0 0 146.000000 151.000000"
 preserveAspectRatio="xMidYMid meet">
<g transform="translate(0.000000,151.000000) scale(0.050000,-0.050000)"
fill="#7c3aed" stroke="none">
<path d="M893 2706 c-44 -87 -103 -460 -68 -426 6 6 51 58 99 117 l89 107 -27
142 c-33 178 -33 178 -93 60z"/>
<path d="M2025 2648 l-24 -152 93 -108 c52 -59 95 -108 97 -108 29 0 -25 330
-68 415 -68 134 -69 134 -98 -47z"/>
<path d="M592 2522 c-11 -86 83 -383 139 -440 56 -55 1 360 -58 443 l-68 95
-13 -98z"/>
<path d="M2344 2533 c-64 -89 -65 -97 -60 -267 l6 -176 66 157 c53 126 65 178
60 267 l-6 111 -66 -92z"/>
<path d="M392 2250 c10 -100 36 -160 150 -356 170 -290 171 -298 6 -118 -112
123 -368 298 -368 252 0 -80 118 -216 318 -368 231 -174 293 -245 88 -101 -78
55 -166 95 -262 120 l-144 37 38 -53 c66 -92 128 -137 282 -203 83 -36 203
-92 267 -124 64 -32 121 -55 125 -51 34 35 -323 873 -414 975 l-99 109 13
-119z"/>
<path d="M2518 2239 c-78 -92 -115 -170 -238 -499 -80 -214 -153 -406 -163
-425 -25 -48 -32 -51 287 96 261 119 411 224 415 291 2 27 -281 -61 -342 -107
-100 -74 -177 -121 -177 -108 0 7 102 89 226 182 205 154 314 280 314 362 0
44 -271 -138 -385 -258 l-136 -143 93 160 c215 371 211 362 204 463 l-6 96
-92 -110z"/>
<path d="M1366 1655 c-21 -103 -19 -108 59 -251 l80 -147 80 145 c79 143 80
145 56 251 l-24 107 -114 0 -115 0 -22 -105z m196 -10 c-11 -19 -25 -53 -33
-75 -13 -40 -13 -40 -30 0 -27 66 -21 87 26 96 25 5 47 10 50 11 3 2 -3 -13
-13 -32z"/>
<path d="M100 1391 c0 -58 193 -131 461 -174 300 -48 300 -69 -1 -75 -85 -2
-340 -95 -340 -124 0 -48 242 -37 488 21 285 68 359 68 129 0 -96 -28 -185
-72 -256 -126 l-108 -83 99 -6 c88 -5 715 258 684 286 -102 93 -1156 348
-1156 281z"/>
<path d="M2175 1253 l-435 -143 303 -146 c268 -129 315 -145 401 -140 l97 6
-107 84 c-74 58 -155 97 -264 128 -246 72 -143 67 153 -7 264 -67 312 -69 456
-23 52 17 -217 128 -316 130 -89 1 -310 30 -277 35 8 2 138 22 287 45 260 40
423 103 426 163 3 62 -306 5 -724 -132z"/>
<path d="M1477 1046 c-4 -9 -97 -101 -207 -206 -187 -177 -245 -258 -248 -346
-3 -62 228 113 331 252 127 171 98 102 -61 -143 -115 -178 -132 -216 -132
-298 l0 -93 101 99 c59 58 110 130 123 174 37 123 52 85 24 -60 -23 -117 -22
-148 5 -235 43 -133 47 -138 76 -98 23 31 26 31 40 -4 38 -95 107 186 79 320
-39 182 -22 212 30 51 12 -39 63 -111 112 -159 l90 -88 0 103 c0 93 -13 123
-132 306 -144 222 -163 283 -33 106 66 -90 298 -281 318 -261 2 2 -7 44 -19
92 -30 110 -472 544 -497 488z"/>
</g>
</svg>
