<svg width="240" height="80" viewBox="0 0 240 80" fill="none" xmlns="http://www.w3.org/2000/svg">
  <!-- Background Circle -->
  <circle cx="40" cy="40" r="30" fill="#1B8057"/>

  <!-- Cab Icon -->
  <path d="M30 32H50V42C50 44.2091 48.2091 46 46 46H34C31.7909 46 30 44.2091 30 42V32Z" fill="white"/>
  <rect x="32" y="28" width="16" height="4" fill="white"/>
  <rect x="28" y="42" width="4" height="4" rx="2" fill="white"/>
  <rect x="48" y="42" width="4" height="4" rx="2" fill="white"/>
  <rect x="34" y="36" width="4" height="4" fill="#1B8057"/>
  <rect x="42" y="36" width="4" height="4" fill="#1B8057"/>

  <!-- Text -->
  <path d="M80 28H84V52H80V28Z" fill="#1B8057"/>
  <path d="M88 32H92V36H96V40H92V48H96V52H88V32Z" fill="#1B8057"/>
  <path d="M100 32H112C114.209 32 116 33.7909 116 36V48C116 50.2091 114.209 52 112 52H100V32ZM104 36V48H112V36H104Z" fill="#1B8057"/>
  <path d="M120 32H132C134.209 32 136 33.7909 136 36V48C136 50.2091 134.209 52 132 52H120V32ZM124 36V48H132V36H124Z" fill="#1B8057"/>
  <path d="M140 32H148C150.209 32 152 33.7909 152 36V48C152 50.2091 150.209 52 148 52H140V32ZM144 36V48H148C149.105 48 150 47.1046 150 46V38C150 36.8954 149.105 36 148 36H144Z" fill="#F97316"/>
  <path d="M156 32H164C166.209 32 168 33.7909 168 36V48C168 50.2091 166.209 52 164 52H156V32ZM160 36V48H164C165.105 48 166 47.1046 166 46V38C166 36.8954 165.105 36 164 36H160Z" fill="#F97316"/>
  <path d="M172 32H184C186.209 32 188 33.7909 188 36V48C188 50.2091 186.209 52 184 52H172V32ZM176 36V48H184V36H176Z" fill="#F97316"/>
</svg>
